<svg width="128" height="82" viewBox="0 0 128 82" fill="none" xmlns="http://www.w3.org/2000/svg">
<path d="M126.783 38.8056L126.783 38.8058C127.739 40.1123 127.739 41.8877 126.783 43.1958C126.223 43.9609 119.154 53.4997 107.894 62.8425C96.6254 72.1927 81.2267 81.2914 63.9994 81.2914C46.7721 81.2914 31.373 72.1928 20.1043 62.8424C8.84498 53.4999 1.77565 43.9613 1.21614 43.1951C0.261288 41.8867 0.261288 40.1122 1.21614 38.8038C1.77678 38.0368 8.8459 28.4994 20.1043 19.1578C31.373 9.80759 46.7721 0.708984 63.9994 0.708984C81.2267 0.708984 96.6254 9.80758 107.894 19.158C119.154 28.5009 126.223 38.04 126.783 38.8056ZM9.20889 40.6797L8.94729 40.9977L9.20922 41.3154C12.5086 45.3174 19.731 53.4398 29.3519 60.5656C38.9659 67.6863 51.029 73.8519 63.9994 73.8519C76.9971 73.8519 89.0622 67.6896 98.6707 60.571C108.286 53.4474 115.495 45.3262 118.79 41.3207L119.051 41.0027L118.79 40.685C115.489 36.6808 108.266 28.5584 98.6453 21.4332C89.0315 14.313 76.9691 8.1485 63.9994 8.1485C51.0017 8.1485 38.9366 14.3107 29.328 21.4293C19.7128 28.5529 12.5041 36.674 9.20889 40.6797Z" fill="white" stroke="white"/>
<path d="M63.9992 15.6816C50.0386 15.6816 38.6804 27.0399 38.6804 41.0004C38.6804 54.961 50.0386 66.3192 63.9992 66.3192C77.9597 66.3192 89.318 54.961 89.318 41.0004C89.318 27.0399 77.9597 15.6816 63.9992 15.6816ZM63.9992 57.8795C54.6916 57.8795 47.1201 50.3077 47.1201 41.0004C47.1201 31.6932 54.6919 24.1214 63.9992 24.1214C73.3064 24.1214 80.8782 31.6932 80.8782 41.0004C80.8782 50.3077 73.3067 57.8795 63.9992 57.8795Z" fill="white"/>
</svg>
