<svg width="52" height="50" viewBox="0 0 52 50" fill="none" xmlns="http://www.w3.org/2000/svg">
<path d="M26.0828 2C13.266 2 2.85431 12.3093 2.85431 25C2.85431 37.6907 13.266 48 26.0828 48C38.8996 48 49.3113 37.6907 49.3113 25C49.3113 12.3093 38.8996 2 26.0828 2ZM26.0828 4C37.8079 4 47.2914 13.3902 47.2914 25C47.2914 36.6098 37.8079 46 26.0828 46C14.3576 46 4.87418 36.6098 4.87418 25C4.87418 13.3902 14.3576 4 26.0828 4ZM27.6786 10C25.0004 10 22.9692 10.8672 21.7176 12.4004C20.4659 13.9336 20.0232 15.981 20.0232 18.2266V20H18.0033C17.7355 20 17.4786 20.1054 17.2892 20.2929C17.0998 20.4805 16.9934 20.7348 16.9934 21V26C16.9934 26.2652 17.0998 26.5195 17.2892 26.7071C17.4786 26.8946 17.7355 27 18.0033 27H20.0232V39C20.0232 39.2652 20.1296 39.5195 20.319 39.7071C20.5084 39.8946 20.7653 40 21.0331 40H27.0927C27.3606 40 27.6174 39.8946 27.8068 39.7071C27.9962 39.5195 28.1026 39.2652 28.1027 39V27H32.1424C32.376 26.9999 32.6023 26.9197 32.7828 26.773C32.9634 26.6263 33.087 26.4221 33.1326 26.1953L34.1425 21.1953C34.1717 21.0503 34.168 20.9007 34.1317 20.7573C34.0955 20.6138 34.0276 20.4802 33.9329 20.3658C33.8382 20.2515 33.719 20.1594 33.5841 20.0962C33.4491 20.0329 33.3016 20.0001 33.1523 20H28.1027V17.8066C28.1027 17.3216 28.1343 17.3256 28.2762 17.2344C28.4181 17.1431 28.931 17 29.8306 17H33.1523C33.4202 17 33.677 16.8946 33.8664 16.7071C34.0558 16.5195 34.1622 16.2652 34.1623 16V12C34.1621 11.7938 34.0976 11.5926 33.9776 11.4241C33.8575 11.2555 33.6878 11.1279 33.4916 11.0586C33.4916 11.0586 30.5834 10 27.6786 10ZM27.6786 12C29.5898 12 31.3622 12.5104 32.1424 12.752V15H29.8306C28.7729 15 27.9148 15.0846 27.1775 15.5586C26.4403 16.0326 26.0828 16.9407 26.0828 17.8066V21C26.0828 21.2652 26.1892 21.5195 26.3786 21.7071C26.568 21.8946 26.8249 22 27.0927 22H31.9195L31.3139 25H27.0927C26.8249 25 26.568 25.1054 26.3786 25.2929C26.1892 25.4805 26.0828 25.7348 26.0828 26V38H22.0431V26C22.043 25.7348 21.9366 25.4805 21.7472 25.2929C21.5578 25.1054 21.301 25 21.0331 25H19.0133V22H21.0331C21.301 22 21.5578 21.8946 21.7472 21.7071C21.9366 21.5195 22.043 21.2652 22.0431 21V18.2266C22.0431 16.2471 22.4521 14.6818 23.2877 13.6582C24.1233 12.6346 25.4131 12 27.6786 12Z" fill="black"/>
</svg>
