<svg width="51" height="50" viewBox="0 0 51 50" fill="none" xmlns="http://www.w3.org/2000/svg">
<path d="M25.7517 2C12.9349 2 2.52319 12.3093 2.52319 25C2.52319 37.6907 12.9349 48 25.7517 48C38.5684 48 48.9801 37.6907 48.9801 25C48.9801 12.3093 38.5684 2 25.7517 2ZM25.7517 4C37.4768 4 46.9603 13.3902 46.9603 25C46.9603 36.6098 37.4768 46 25.7517 46C14.0265 46 4.54306 36.6098 4.54306 25C4.54306 13.3902 14.0265 4 25.7517 4ZM15.6543 18L11.5791 18.002C11.5791 18.002 11.3459 17.9889 11.0642 18.0254C10.7826 18.0618 10.3665 18.0788 9.9399 18.5566L9.93792 18.5586L9.93595 18.5605C9.55645 18.9903 9.57093 19.4904 9.61837 19.7656C9.66564 20.0398 9.77145 20.2446 9.77223 20.2461V20.248C9.81141 20.3432 12.7704 27.5219 16.5005 31.3789C19.1317 34.1013 21.9456 35 24.4518 35H25.7517C26.1793 35 26.5613 34.9807 26.9845 34.7637C27.4077 34.5466 27.7715 33.9476 27.7715 33.4824C27.7715 32.9812 27.784 32.4954 27.8485 32.2246C27.9087 31.9717 27.8855 32.0338 27.9096 32.0332C27.9338 32.0384 27.9779 32.0485 28.0615 32.0859C28.2417 32.1666 28.52 32.3466 28.8288 32.584C29.4454 33.0579 30.1757 33.7456 30.9946 34.2773C32.1676 35.0471 33.4406 35 33.4406 35H37.6381L37.6835 34.9961C37.6835 34.9961 38.3276 34.9816 38.9893 34.5801C39.3202 34.3793 39.7134 34.011 39.8454 33.459C39.9774 32.9069 39.8088 32.3277 39.4844 31.8184C39.3659 31.6315 38.7906 30.8059 36.4941 28.7871C35.9008 28.2661 35.4962 27.8973 35.3362 27.7012C35.2794 27.6315 35.2746 27.6383 35.2632 27.6348C35.2766 27.6006 35.4093 27.3239 35.7642 26.8672C36.1342 26.3912 36.6963 25.7279 37.4192 24.8164C38.3405 23.6542 38.9869 22.5367 39.3937 21.5938C39.5971 21.1223 39.7412 20.6945 39.8276 20.3066C39.914 19.9188 39.983 19.5965 39.8552 19.1367C39.76 18.7945 39.5013 18.488 39.2477 18.3262C38.9941 18.1644 38.7577 18.1034 38.5455 18.0645C38.1211 17.9865 37.7466 18 37.3975 18C36.6665 18 33.4169 18.0254 33.1486 18.0254C32.8338 18.0254 32.3316 18.1552 32.0993 18.2871C31.5223 18.6143 31.3418 19.0625 31.3418 19.0625L31.2866 19.1582L31.255 19.2656C31.255 19.2656 30.5151 21.6358 29.7539 22.8574H29.752C28.857 24.2965 28.1894 24.8674 27.8958 25.0293C27.8646 25.0465 27.8819 25.0374 27.8603 25.0488C27.8373 24.9826 27.8084 24.8914 27.7893 24.7227C27.7464 24.3424 27.7715 23.807 27.7715 23.2891C27.7715 21.8546 27.8803 20.9602 27.7597 20.1133C27.6994 19.6898 27.5458 19.2183 27.1956 18.8555C26.8453 18.4927 26.3928 18.3141 25.941 18.2109H25.9391C25.4682 18.1036 24.9608 18.0114 23.7417 18C22.1884 17.9857 21.1768 18.0333 20.2779 18.4297L20.268 18.4355L20.2602 18.4395C19.905 18.6046 19.625 18.794 19.3784 19.0469C19.2551 19.1733 19.1089 19.2654 19.0076 19.668C18.957 19.8693 18.9514 20.2501 19.1812 20.5586C19.411 20.8671 19.733 20.9601 19.9229 20.9844C19.8878 20.9799 20.0722 21.0201 20.2148 21.0898C20.3574 21.1596 20.4811 21.2601 20.5126 21.3008V21.3027C20.4995 21.2858 20.6364 21.6226 20.6724 21.9297C20.7085 22.2367 20.702 22.4844 20.702 22.4844L20.7 22.5449L20.7059 22.6055C20.7059 22.6055 20.7679 23.2849 20.7355 23.9863C20.7193 24.337 20.6746 24.69 20.6152 24.9062C20.6121 24.9177 20.6106 24.9137 20.6073 24.9238C20.3545 24.749 19.7714 24.1397 18.9682 22.8262C18.2256 21.6111 17.5302 19.4258 17.5302 19.4258L17.5144 19.377L17.4966 19.3301C17.4966 19.3301 17.367 18.8419 16.7944 18.4434C16.2578 18.0693 15.747 18.0176 15.747 18.0176L15.6543 18ZM15.4196 20C15.4773 20.0209 15.5981 20.064 15.6208 20.0742L15.5971 20.0039C15.5971 20.0039 15.6282 20.0746 15.6287 20.0762C15.6289 20.0763 15.6325 20.078 15.6326 20.0781V20.0801H15.6346C15.5838 20.0449 15.6269 20.0798 15.6326 20.0879C15.6605 20.1821 16.2772 22.2854 17.2402 23.8613C18.1175 25.2959 18.7657 26.0997 19.4731 26.5801C20.1799 27.06 21.1302 27.0106 21.6133 26.7617C22.2589 26.4297 22.4394 25.8841 22.5641 25.4297C22.6888 24.9752 22.7333 24.5142 22.7534 24.0781C22.7919 23.2461 22.7261 22.5655 22.7199 22.498C22.7209 22.4605 22.7299 22.1354 22.6785 21.6973C22.6266 21.2558 22.5337 20.7072 22.138 20.1562C22.5812 20.091 22.8273 19.9917 23.7219 20C24.8628 20.0106 25.0363 20.0578 25.4854 20.1602C25.7299 20.216 25.7571 20.2623 25.7339 20.2383C25.7108 20.2143 25.7319 20.1983 25.7596 20.3926C25.8149 20.7811 25.7517 21.7775 25.7517 23.2891C25.7517 23.7152 25.7101 24.316 25.7813 24.9453C25.8523 25.5742 26.0509 26.3788 26.8188 26.8496C27.2564 27.1178 28.0923 27.21 28.8801 26.7754C29.6679 26.3408 30.4764 25.5071 31.472 23.9062C32.4555 22.3278 33.0436 20.2526 33.1072 20.0332C33.1072 20.0332 33.1184 20.026 33.125 20.0215C33.1428 20.0223 33.1201 20.0254 33.1486 20.0254C33.5227 20.0254 36.7146 20 37.3975 20C37.5854 20 37.6678 20.01 37.8078 20.0156C37.7512 20.2315 37.6752 20.4829 37.5355 20.8066C37.2073 21.5674 36.6441 22.5542 35.8293 23.582C35.1271 24.4675 34.5816 25.1097 34.1645 25.6465C33.7474 26.1832 33.4197 26.6066 33.2828 27.2188C33.1459 27.8309 33.4071 28.5213 33.7641 28.959C34.1211 29.3966 34.5629 29.7652 35.1527 30.2832C37.3747 32.2364 37.7392 32.8277 37.7742 32.8828V32.8848C37.8117 32.9437 37.7874 32.8844 37.8018 32.9141C37.6758 32.953 37.5259 32.9969 37.5119 33H33.4248H33.4189C33.4189 33 32.6672 32.9756 32.1091 32.6094L32.1072 32.6074H32.1052C31.5148 32.2246 30.8013 31.568 30.0676 31.0039C29.7007 30.7219 29.3272 30.4576 28.8939 30.2637C28.4607 30.0697 27.9116 29.9322 27.3336 30.1035C26.4972 30.3514 26.0329 31.1397 25.8838 31.7656C25.7768 32.215 25.7926 32.6057 25.7892 32.998C25.7603 32.9995 25.7853 33 25.7517 33H24.4518C22.3991 33 20.2636 32.3795 17.9602 29.9961C14.9656 26.8996 12.2938 20.9116 11.8927 20.002L15.4196 20ZM33.0362 20.0078C33.0179 20.0119 33.0703 20.0158 33.1131 20.0195C33.1073 20.0226 33.1136 20.0168 33.1053 20.0215C33.1044 20.0048 33.0609 20.0024 33.0362 20.0078Z" fill="#004C9E"/>
</svg>
