<svg width="234" height="68" viewBox="0 0 234 68" fill="none" xmlns="http://www.w3.org/2000/svg">
<path d="M153.309 52.0043C152.601 52.0043 152.022 51.7946 151.572 51.375C151.154 50.9232 150.945 50.3423 150.945 49.6324V16.5698C150.945 15.8598 151.154 15.2951 151.572 14.8755C152.022 14.4237 152.601 14.1978 153.309 14.1978C154.016 14.1978 154.579 14.4237 154.997 14.8755C155.447 15.2951 155.672 15.8598 155.672 16.5698V36.2718L167.394 25.7673C167.877 25.3155 168.408 25.1057 168.986 25.138C169.597 25.1703 170.112 25.4284 170.53 25.9125C170.98 26.3966 171.189 26.9291 171.157 27.51C171.125 28.0909 170.868 28.6072 170.385 29.059L161.509 36.9979L170.868 48.519C171.286 49.0353 171.463 49.6001 171.398 50.2133C171.366 50.7942 171.077 51.3105 170.53 51.7623C170.015 52.1818 169.437 52.3593 168.793 52.2948C168.182 52.2625 167.668 51.9882 167.25 51.4719L158.084 40.096L155.672 42.226V49.6324C155.672 50.3423 155.447 50.9232 154.997 51.375C154.579 51.7946 154.016 52.0043 153.309 52.0043Z" fill="#016BB3"/>
<path d="M179.181 52.0528C178.473 52.0528 177.879 51.8269 177.396 51.375C176.946 50.891 176.721 50.2939 176.721 49.584V27.9941C176.721 27.2518 176.946 26.6548 177.396 26.203C177.879 25.7512 178.473 25.5253 179.181 25.5253C179.921 25.5253 180.516 25.7512 180.966 26.203C181.416 26.6548 181.641 27.2518 181.641 27.9941V28.5265C182.638 27.5261 183.844 26.7354 185.259 26.1546C186.674 25.5737 188.202 25.2832 189.842 25.2832C192.061 25.2832 194.039 25.7673 195.775 26.7354C197.544 27.6713 198.927 29.059 199.924 30.8985C200.953 32.738 201.467 34.9971 201.467 37.6756V49.584C201.467 50.2939 201.226 50.891 200.744 51.375C200.293 51.8269 199.715 52.0528 199.007 52.0528C198.3 52.0528 197.705 51.8269 197.222 51.375C196.772 50.891 196.547 50.2939 196.547 49.584V37.6756C196.547 34.9325 195.807 32.9317 194.328 31.673C192.881 30.3822 191.064 29.7367 188.877 29.7367C187.526 29.7367 186.304 30.011 185.211 30.5597C184.117 31.1083 183.249 31.8505 182.606 32.7864C181.963 33.69 181.641 34.7389 181.641 35.9329V49.584C181.641 50.2939 181.416 50.891 180.966 51.375C180.516 51.8269 179.921 52.0528 179.181 52.0528Z" fill="#016BB3"/>
<path d="M218.912 52.198C216.565 52.198 214.458 51.6171 212.593 50.4553C210.728 49.2612 209.249 47.6638 208.155 45.6629C207.094 43.6298 206.563 41.3385 206.563 38.789C206.563 36.2395 207.142 33.9482 208.3 31.9151C209.49 29.882 211.082 28.2845 213.076 27.1227C215.102 25.9287 217.369 25.3316 219.877 25.3316C222.386 25.3316 224.637 25.9287 226.631 27.1227C228.624 28.2845 230.2 29.882 231.358 31.9151C232.548 33.9482 233.143 36.2395 233.143 38.789V49.584C233.143 50.2939 232.902 50.891 232.419 51.375C231.969 51.8269 231.39 52.0528 230.683 52.0528C229.975 52.0528 229.38 51.8269 228.898 51.375C228.448 50.891 228.222 50.2939 228.222 49.584V47.7929C227.097 49.1483 225.73 50.2294 224.122 51.0362C222.546 51.8107 220.81 52.198 218.912 52.198ZM219.877 47.8413C221.517 47.8413 222.981 47.454 224.267 46.6795C225.553 45.8727 226.566 44.7916 227.306 43.4362C228.046 42.0485 228.415 40.4994 228.415 38.789C228.415 37.0463 228.046 35.4973 227.306 34.1419C226.566 32.7542 225.553 31.673 224.267 30.8985C222.981 30.0917 221.517 29.6883 219.877 29.6883C218.269 29.6883 216.806 30.0917 215.487 30.8985C214.201 31.673 213.172 32.7542 212.4 34.1419C211.661 35.4973 211.291 37.0463 211.291 38.789C211.291 40.4994 211.661 42.0485 212.4 43.4362C213.172 44.7916 214.201 45.8727 215.487 46.6795C216.806 47.454 218.269 47.8413 219.877 47.8413Z" fill="#016BB3"/>
<path d="M181.582 28.3956V26.9011L182.33 26.5275V27.6483L181.582 28.3956Z" fill="white"/>
<path d="M53.0549 34.3736C53.0549 49.2307 41.1782 61.2747 26.5275 61.2747C11.8768 61.2747 0 49.2307 0 34.3736C0 19.5166 11.8768 7.47253 26.5275 7.47253C41.1782 7.47253 53.0549 19.5166 53.0549 34.3736Z" fill="url(#paint0_linear)" fill-opacity="0.34"/>
<path fill-rule="evenodd" clip-rule="evenodd" d="M26.5275 55.7315C38.1593 55.7315 47.5887 46.1692 47.5887 34.3736C47.5887 22.578 38.1593 13.0158 26.5275 13.0158C14.8957 13.0158 5.46627 22.578 5.46627 34.3736C5.46627 46.1692 14.8957 55.7315 26.5275 55.7315ZM26.5275 61.2747C41.1782 61.2747 53.0549 49.2307 53.0549 34.3736C53.0549 19.5166 41.1782 7.47253 26.5275 7.47253C11.8768 7.47253 0 19.5166 0 34.3736C0 49.2307 11.8768 61.2747 26.5275 61.2747Z" fill="#004C9E"/>
<path d="M146.462 34C146.462 52.7777 131.239 68 112.462 68C93.6839 68 78.4615 52.7777 78.4615 34C78.4615 15.2223 93.6839 0 112.462 0C131.239 0 146.462 15.2223 146.462 34Z" fill="url(#paint1_linear)" fill-opacity="0.34"/>
<path fill-rule="evenodd" clip-rule="evenodd" d="M112.462 62.5213C128.213 62.5213 140.983 49.7519 140.983 34C140.983 18.2481 128.213 5.47867 112.462 5.47867C96.7096 5.47867 83.9402 18.2481 83.9402 34C83.9402 49.7519 96.7096 62.5213 112.462 62.5213ZM112.462 68C131.239 68 146.462 52.7777 146.462 34C146.462 15.2223 131.239 0 112.462 0C93.6839 0 78.4615 15.2223 78.4615 34C78.4615 52.7777 93.6839 68 112.462 68Z" fill="#016BB3"/>
<path fill-rule="evenodd" clip-rule="evenodd" d="M111.341 65.7582L111.341 0.747253L116.571 0.747253L116.571 65.7582L111.341 65.7582Z" fill="#016BB3"/>
<path fill-rule="evenodd" clip-rule="evenodd" d="M112.835 30.6373L144.967 30.6373V36.6154L112.835 36.6154V30.6373Z" fill="#016BB3"/>
<rect x="55.2967" y="14.1978" width="5.23077" height="38.8571" fill="#004C9E"/>
<rect x="73.6719" y="23.1649" width="5.23077" height="24.3299" transform="rotate(49.0475 73.6719 23.1649)" fill="#004C9E"/>
<rect x="77.0351" y="49.8693" width="5.23077" height="21.4735" transform="rotate(139.15 77.0351 49.8693)" fill="#004C9E"/>
<rect x="150.945" y="14.1978" width="5.23077" height="38.8571" fill="#016BB3"/>
<rect x="169.418" y="23.8392" width="5.08179" height="24.3299" transform="rotate(49.0475 169.418 23.8392)" fill="#016BB3"/>
<rect x="173.001" y="50.3212" width="5.23077" height="21.4735" transform="rotate(141.029 173.001 50.3212)" fill="#016BB3"/>
<rect x="177.099" y="25.4066" width="5.23077" height="27.6484" fill="#016BB3"/>
<path d="M196.527 35.8681H201.758V53.0549H196.527V35.8681Z" fill="#016BB3"/>
<path d="M201.385 35.8681H201.758V53.0549H201.385V35.8681Z" fill="white"/>
<rect x="175.604" y="25.4066" width="1.49451" height="29.1429" fill="white"/>
<rect x="227.912" y="47.8242" width="5.23077" height="5.23077" fill="#016BB3"/>
<defs>
<linearGradient id="paint0_linear" x1="11.5824" y1="48.9451" x2="46.7033" y2="34.3736" gradientUnits="userSpaceOnUse">
<stop stop-color="#5DC4E8"/>
<stop offset="1" stop-color="white"/>
</linearGradient>
<linearGradient id="paint1_linear" x1="87.4286" y1="54.1758" x2="135.626" y2="17.1868" gradientUnits="userSpaceOnUse">
<stop stop-color="#5DC4E8"/>
<stop offset="1" stop-color="white"/>
</linearGradient>
</defs>
</svg>
