<svg width="51" height="50" viewBox="0 0 51 50" fill="none" xmlns="http://www.w3.org/2000/svg">
<path d="M16.1589 3C8.92021 3 3.02979 8.83248 3.02979 16V34C3.02979 41.1675 8.92021 47 16.1589 47H34.3377C41.5765 47 47.4669 41.1675 47.4669 34V16C47.4669 8.83248 41.5765 3 34.3377 3H16.1589ZM16.1589 5H34.3377C40.4847 5 45.447 9.91352 45.447 16V34C45.447 40.0865 40.4847 45 34.3377 45H16.1589C10.012 45 5.04965 40.0865 5.04965 34V16C5.04965 9.91352 10.012 5 16.1589 5ZM37.3675 11C36.8318 11 36.3181 11.2107 35.9393 11.5858C35.5605 11.9609 35.3477 12.4696 35.3477 13C35.3477 13.5304 35.5605 14.0391 35.9393 14.4142C36.3181 14.7893 36.8318 15 37.3675 15C37.9032 15 38.417 14.7893 38.7958 14.4142C39.1746 14.0391 39.3874 13.5304 39.3874 13C39.3874 12.4696 39.1746 11.9609 38.7958 11.5858C38.417 11.2107 37.9032 11 37.3675 11ZM25.2483 14C19.1248 14 14.1391 18.9367 14.1391 25C14.1391 31.0633 19.1248 36 25.2483 36C31.3718 36 36.3576 31.0633 36.3576 25C36.3576 18.9367 31.3718 14 25.2483 14ZM25.2483 16C30.2802 16 34.3377 20.0176 34.3377 25C34.3377 29.9824 30.2802 34 25.2483 34C20.2164 34 16.1589 29.9824 16.1589 25C16.1589 20.0176 20.2164 16 25.2483 16Z" fill="black"/>
</svg>
