<svg width="52" height="50" viewBox="0 0 52 50" fill="none" xmlns="http://www.w3.org/2000/svg">
<path d="M45.4867 5.98634C44.9948 6.00771 44.516 6.14326 44.0842 6.31447C43.6568 6.48452 41.1964 7.52435 37.563 9.06251C33.9297 10.6007 29.2066 12.6037 24.5246 14.5899C15.1608 18.5622 5.95922 22.4707 5.95922 22.4707L6.02629 22.4453C6.02629 22.4453 5.47092 22.6291 4.90786 23.0176C4.62633 23.2118 4.32345 23.4626 4.07546 23.8281C3.82746 24.1937 3.64616 24.7118 3.71448 25.2598C3.95447 27.1845 5.96908 27.7305 5.96908 27.7305L5.97697 27.7344L14.9678 30.7813C15.197 31.5384 17.6947 39.7929 18.2441 41.541C18.5476 42.5075 18.8316 43.065 19.1278 43.4453C19.2761 43.6356 19.4314 43.7829 19.6032 43.8906C19.6714 43.9334 19.7432 43.9655 19.8143 43.9942C19.8158 43.9948 19.8167 43.9935 19.8182 43.9942C19.8269 43.998 19.8351 43.9983 19.8438 44.002L19.8202 43.9961C19.8367 44.0027 19.853 44.0138 19.8695 44.0195C19.9015 44.0307 19.9212 44.0303 19.9622 44.0391C20.9919 44.3951 21.844 43.7344 21.844 43.7344L21.8795 43.707L27.4026 38.6348L36.3657 45.5547L36.4782 45.6055C38.047 46.2952 39.4659 45.9104 40.2516 45.2774C41.0373 44.6443 41.3464 43.8281 41.3464 43.8281L41.3799 43.7422L47.9662 9.75197C48.1347 8.99153 48.1586 8.33421 47.9997 7.74025C47.8407 7.14628 47.4546 6.62995 46.97 6.34376C46.4855 6.05758 45.9786 5.96497 45.4867 5.98634ZM45.5399 8.01954C45.7397 8.01038 45.8878 8.033 45.9345 8.06056C45.9811 8.08812 46.0021 8.0845 46.0469 8.25197C46.0917 8.41944 46.116 8.77217 45.9936 9.32423L45.9897 9.33595L39.4409 43.1289C39.4254 43.1629 39.2889 43.4755 38.9773 43.7266C38.6595 43.9827 38.306 44.1826 37.3678 43.793L27.5663 36.2246L27.2901 36.0098L27.2842 36.0156L24.353 33.8379L40.8256 14.6485C40.9522 14.5014 41.033 14.3212 41.0583 14.1296C41.0837 13.938 41.0524 13.7432 40.9683 13.5688C40.8842 13.3945 40.7509 13.248 40.5845 13.147C40.4181 13.0461 40.2258 12.995 40.0307 13C39.8401 13.0049 39.6547 13.0631 39.4961 13.168L15.6601 28.9024L6.65552 25.8496C6.65552 25.8496 5.76137 25.3569 5.71857 25.0137C5.7162 24.9947 5.70564 25.0119 5.7521 24.9434C5.79857 24.8749 5.91536 24.7592 6.06179 24.6582C6.35465 24.4562 6.68906 24.334 6.68906 24.334L6.72259 24.3223L6.75612 24.3086C6.75612 24.3086 15.9582 20.3999 25.3215 16.4277C30.0032 14.4417 34.7255 12.4401 38.358 10.9024C41.9895 9.36497 44.6136 8.25838 44.8358 8.16993C45.0887 8.06964 45.3402 8.0287 45.5399 8.01954ZM34.6161 18.793L22.1241 33.3457L22.1182 33.3516C22.0987 33.3748 22.0802 33.3989 22.0629 33.4238C22.0431 33.4509 22.0247 33.4789 22.0077 33.5078C21.9375 33.6258 21.8925 33.7567 21.8755 33.8926C21.8755 33.8952 21.8755 33.8978 21.8755 33.9004L20.2482 41.1465C20.2212 41.0682 20.2022 41.0396 20.1733 40.9473V40.9453C19.6564 39.3009 17.2998 31.5161 16.9738 30.4395L34.6161 18.793ZM23.5344 35.7305L25.7792 37.3984L22.4811 40.4258L23.5344 35.7305Z" fill="black"/>
</svg>
